<?xml version="1.0" encoding="utf-8"?>
<!-- Generator: Adobe Illustrator 16.0.0, SVG Export Plug-In . SVG Version: 6.00 Build 0)  -->
<!DOCTYPE svg PUBLIC "-//W3C//DTD SVG 1.1//EN" "http://www.w3.org/Graphics/SVG/1.1/DTD/svg11.dtd">
<svg version="1.1" id="Layer_1" xmlns="http://www.w3.org/2000/svg" xmlns:xlink="http://www.w3.org/1999/xlink" x="0px" y="0px"
	 width="30px" height="30px" viewBox="497 497 30 30" enable-background="new 497 497 30 30" xml:space="preserve">
<path class='dislikeF' d="M515.464,501.629h-10.219c-0.908,0-2.239,1.511-3.957,4.933c-1.232,2.456-1.721,4.554-1.721,4.554v2.11
	c0,1.159,1.527,2.288,2.778,2.288h7.639l-2.026,4.433c-0.221,0.652-0.026,1.368,0.494,1.821l0.419,0.361
	c0.392,0.332,0.975,0.318,1.352-0.031l6.833-6.344c0.453-0.421,1.257-1.204,1.257-2.807v-8.826
	C518.312,502.962,516.713,501.629,515.464,501.629"/>
<path class='dislikeF' d="M524.566,514.129h-4.863v-11.805l4.863,0.001v11.705V514.129z"/>
</svg>
