<?xml version="1.0" encoding="utf-8"?>
<!-- Generator: Adobe Illustrator 16.0.0, SVG Export Plug-In . SVG Version: 6.00 Build 0)  -->
<!DOCTYPE svg PUBLIC "-//W3C//DTD SVG 1.1//EN" "http://www.w3.org/Graphics/SVG/1.1/DTD/svg11.dtd">
<svg version="1.1" id="Layer_1" xmlns="http://www.w3.org/2000/svg" xmlns:xlink="http://www.w3.org/1999/xlink" x="0px" y="0px"
	 width="30px" height="30px" viewBox="10.25 2.5 30 30" enable-background="new 10.25 2.5 30 30" xml:space="preserve">
<path class='likeF' d="M21.852,27.871h10.219c0.909,0,2.24-1.51,3.958-4.933c1.233-2.456,1.721-4.554,1.721-4.554v-2.11
	c0-1.158-1.527-2.292-2.777-2.292h-7.639l2.025-4.432c0.222-0.649,0.026-1.366-0.494-1.818L28.447,7.37
	c-0.393-0.332-0.975-0.319-1.351,0.031l-6.834,6.344c-0.454,0.421-1.257,1.203-1.257,2.806v8.827
	C19.004,26.539,20.603,27.871,21.852,27.871"/>
<path class='likeF' d="M12.75,15.371h4.861v11.806l-4.861-0.001V15.471V15.371z"/>
</svg>
